<svg xmlns="http://www.w3.org/2000/svg" viewBox="0 0 80 80" fill="none">
  <rect width="80" height="80" rx="18" fill="#3d2433"/>
  <circle cx="40" cy="40" r="34" fill="#e0c896" opacity="0.12"/>
  <path
    d="M53 19.8c-1.55-4.5-6.1-7.6-12.4-7.6-8.85 0-14.6 4.95-14.6 12 0 6.15 3.85 9.55 13.2 11.85l4.55 1.15c6.15 1.55 9.15 4.15 9.15 9.05 0 6-5.55 10.25-13.75 10.25-7.15 0-12.3-3.15-14.55-8.55"
    stroke="#e0c896"
    stroke-width="7.5"
    stroke-linecap="round"
    stroke-linejoin="round"
  />
  <path d="M37.8 13.5v53" stroke="#e0c896" stroke-width="7.5" stroke-linecap="round"/>
  <path
    d="M37.8 13.5h12c7.9 0 13 4.35 13 11.25 0 6.8-5.1 11.45-13 11.45h-12"
    stroke="#e0c896"
    stroke-width="7.5"
    stroke-linecap="round"
    stroke-linejoin="round"
  />
  <path d="M46 35.2 62.2 65.5" stroke="#e0c896" stroke-width="7.5" stroke-linecap="round"/>
</svg>
