<svg xmlns="http://www.w3.org/2000/svg" viewBox="0 0 64 64" fill="none">
  <rect width="64" height="64" rx="14" fill="#3d2433"/>
  <circle cx="32" cy="32" r="26" stroke="#e0c896" stroke-width="1" opacity="0.4"/>
  <path
    d="M39.8 21.6c-.95-2.35-3.25-3.85-6.55-3.85-4.45 0-7.45 2.45-7.45 6.05 0 3.15 2 4.85 6.85 6.05l2.9.7c3.35.8 4.95 2.1 4.95 4.65 0 2.95-2.7 5-6.65 5-3.5 0-6.15-1.55-7.4-4.4"
    stroke="#e0c896"
    stroke-width="2.6"
    stroke-linecap="round"
    stroke-linejoin="round"
  />
  <path d="M32.6 17.5v29" stroke="#e0c896" stroke-width="2.6" stroke-linecap="round"/>
  <path
    d="M32.6 17.5h5.85c4.2 0 6.95 2.25 6.95 5.85s-2.75 5.95-6.95 5.95H32.6"
    stroke="#e0c896"
    stroke-width="2.6"
    stroke-linecap="round"
    stroke-linejoin="round"
  />
  <path d="M36.4 29.3 46.5 46.5" stroke="#e0c896" stroke-width="2.6" stroke-linecap="round"/>
</svg>
