<svg xmlns="http://www.w3.org/2000/svg" viewBox="0 0 120 120" fill="none">
  <defs>
    <linearGradient id="silkFill" x1="28" y1="22" x2="92" y2="98" gradientUnits="userSpaceOnUse">
      <stop stop-color="#e8d0b0"/>
      <stop offset="0.5" stop-color="#d4b896"/>
      <stop offset="1" stop-color="#c4a484"/>
    </linearGradient>
  </defs>
  <rect width="120" height="120" rx="28" fill="#3d2433"/>
  <circle cx="60" cy="60" r="46" fill="#f7efe4" opacity="0.08"/>
  <path
    d="M60 28c-10 2-21 11-23 23-2 11 5.5 18 14.5 21.5 3.5 1.3 6.2 3.5 6.2 7.5 0 6-5.8 11-13.2 11-4.8 0-8.8-1.8-11.5-4.8"
    stroke="url(#silkFill)"
    stroke-width="8"
    stroke-linecap="round"
    stroke-linejoin="round"
  />
  <path
    d="M66 33c9 3.5 16 12.5 16 23 0 12.5-9 19.5-19.5 22-4.5 1-7.5 4-7.5 8.5 0 7 7 12.5 16.5 12.5 6.2 0 11-2.2 14-6"
    stroke="url(#silkFill)"
    stroke-width="7"
    stroke-linecap="round"
    stroke-linejoin="round"
  />
  <path
    d="M50 44c5.5-1.8 12.5 1 16 7 3 5.5 1.8 10.5-1.8 14"
    stroke="#f7efe4"
    stroke-width="2"
    stroke-linecap="round"
    opacity="0.45"
  />
</svg>
